HIERARCHY
ROOT Hips
{
	OFFSET 0.000000 88.474243 0.000000
	CHANNELS 6 Xposition Yposition Zposition Zrotation Yrotation Xrotation 
	JOINT Hips_Spine
	{
		OFFSET 0.000000 0.000000 0.000000
		CHANNELS 3 Zrotation Yrotation Xrotation
		JOINT Spine
		{
			OFFSET 0.005100 8.711998 -0.691000
			CHANNELS 3 Zrotation Yrotation Xrotation
			JOINT Spine1
			{
				OFFSET -0.009200 8.660301 -1.275000
				CHANNELS 3 Zrotation Yrotation Xrotation
				JOINT Spine2
				{
					OFFSET 0.006300 9.852501 -1.857000
					CHANNELS 3 Zrotation Yrotation Xrotation
					JOINT Spine2_Neck
					{
						OFFSET 0.000000 0.000000 0.000000
						CHANNELS 3 Zrotation Yrotation Xrotation
						JOINT Neck
						{
							OFFSET 0.016300 11.420799 -0.263300
							CHANNELS 3 Zrotation Yrotation Xrotation
							End Site #name: Head
							{
								OFFSET -0.019200 9.262405 2.362500
							}
						}
					}
					JOINT Spine2_LeftShoulder
					{
						OFFSET 0.000000 0.000000 0.000000
						CHANNELS 3 Zrotation Yrotation Xrotation
						JOINT LeftShoulder
						{
							OFFSET 5.616900 6.732201 -0.345700
							CHANNELS 3 Zrotation Yrotation Xrotation
							JOINT LeftArm
							{
								OFFSET 10.664888 -0.183372 -2.440700
								CHANNELS 3 Zrotation Yrotation Xrotation
								JOINT LeftForeArm
								{
									OFFSET 27.459126 0.000000 0.000000
									CHANNELS 3 Zrotation Yrotation Xrotation
									End Site #name: LeftHand
									{
										OFFSET 21.306858 0.000000 0.000000
									}
								}
							}
						}
					}
					JOINT Spine2_RightShoulder
					{
						OFFSET 0.000000 0.000000 0.000000
						CHANNELS 3 Zrotation Yrotation Xrotation
						JOINT RightShoulder
						{
							OFFSET -5.580300 6.737503 -0.344400
							CHANNELS 3 Zrotation Yrotation Xrotation
							JOINT RightArm
							{
								OFFSET -10.679335 -0.188484 -2.383900
								CHANNELS 3 Zrotation Yrotation Xrotation
								JOINT RightForeArm
								{
									OFFSET -27.503529 0.000000 0.000000
									CHANNELS 3 Zrotation Yrotation Xrotation
									End Site #name: RightHand
									{
										OFFSET -21.306808 0.000000 0.000000
									}
								}
							}
						}
					}
				}
			}
		}
	}
	JOINT Hips_LeftUpLeg
	{
		OFFSET 0.000000 0.000000 0.000000
		CHANNELS 3 Zrotation Yrotation Xrotation
		JOINT LeftUpLeg
		{
			OFFSET 6.857700 -6.739601 0.312100
			CHANNELS 3 Zrotation Yrotation Xrotation
			JOINT LeftLeg
			{
				OFFSET -0.367590 -34.731552 -4.572400
				CHANNELS 3 Zrotation Yrotation Xrotation
				End Site #name: LeftFoot
				{
					OFFSET 0.367590 -34.656704 -6.067400
				}
			}
		}
	}
	JOINT Hips_RightUpLeg
	{
		OFFSET 0.000000 0.000000 0.000000
		CHANNELS 3 Zrotation Yrotation Xrotation
		JOINT RightUpLeg
		{
			OFFSET -6.876100 -6.733299 0.301000
			CHANNELS 3 Zrotation Yrotation Xrotation
			JOINT RightLeg
			{
				OFFSET 0.347353 -34.795158 -4.515900
				CHANNELS 3 Zrotation Yrotation Xrotation
				End Site #name: RightFoot
				{
					OFFSET -0.347353 -34.589367 -6.070300
				}
			}
		}
	}
}
MOTION
Frames: 7
Frame Time: 0.041667
0.016034 0.046080 -0.047344 -2.380599 10.230876 -1.997909 0.000000 -0.000000 0.000000 0.105342 -1.634379 0.995017 3.516249 -0.129358 0.155258 0.000000 0.000000 0.000000 3.801709 -0.012940 1.751867 -1.607858 -1.880012 -0.393935 1.936085 0.258288 0.656114 -5.818930 -13.482000 2.503578 -80.649188 3.964115 9.658814 -0.274397 -25.824393 0.136365 4.663153 0.323713 -1.073627 10.804001 13.478089 4.685409 50.448026 50.734659 11.068942 -179.396113 64.655288 -177.453393 0.000000 -0.000000 0.000000 0.060577 15.629206 -20.525392 -0.482593 -4.275578 14.703907 0.000000 0.000000 0.000000 9.018296 1.507411 -3.795841 0.665174 -9.454333 2.259558 
-0.178125 0.029973 -0.167034 -2.486123 5.500746 -0.334721 0.000000 -0.000000 0.000000 -1.143289 -1.846354 0.977049 4.493049 0.122648 1.582341 0.000000 0.000000 0.000000 3.873126 0.036154 2.484580 -1.551938 -1.957390 -0.469479 3.142070 -0.184069 0.619861 -6.256034 -13.992568 2.448694 -83.766823 1.622270 6.268352 -0.913451 -23.740204 0.356034 4.552917 0.232219 1.228105 9.495304 12.359048 3.159028 45.284968 49.209847 -7.986580 178.482461 48.467753 -178.709154 0.000000 -0.000000 0.000000 0.477799 15.237070 -20.120838 -0.728076 -4.149033 11.621569 0.000000 0.000000 0.000000 8.148901 0.000602 -4.164567 2.150945 -7.026895 2.632727 
-0.201897 0.009516 -0.247877 -2.790611 4.308740 0.222595 0.000000 -0.000000 0.000000 -0.799898 -2.014212 1.857890 4.652562 -0.022169 2.084500 0.000000 0.000000 0.000000 3.993313 -0.196260 2.810296 -1.661878 -2.204754 -0.921919 3.015570 -0.151638 2.375250 -5.335871 -14.100562 2.292542 -83.991768 2.562011 7.607985 -1.189553 -22.786801 0.673812 4.426797 0.193070 1.457910 9.447897 12.419559 2.998357 43.331027 48.340997 -11.560099 178.498885 46.338508 -178.516038 0.000000 0.000000 0.000000 1.111779 15.535523 -19.675881 -0.632359 -4.288958 10.821759 0.000000 0.000000 0.000000 8.385115 -1.094207 -4.435788 1.584925 -7.226388 3.710528 
-0.193657 -0.011897 -0.321835 -3.037223 3.945916 0.264697 -0.000000 -0.000000 0.000000 -1.021408 -2.147065 2.259851 4.508742 -0.286416 2.281334 0.000000 0.000000 0.000000 3.921009 -0.291096 2.883963 -1.683757 -2.442521 -0.375431 2.938596 -0.197857 2.913201 -5.714446 -13.922329 2.167772 -85.207131 3.513229 7.951724 -1.338430 -19.356921 0.647890 4.290123 0.028276 1.796963 9.825014 12.692386 3.033850 42.689714 49.737420 -12.715646 178.667097 46.505154 -178.506832 0.000000 0.000000 0.000000 1.603772 15.778561 -19.701502 -0.512845 -4.386128 10.882909 0.000000 0.000000 0.000000 8.651183 -1.754845 -4.940401 0.551548 -7.532728 4.970041 
-0.156990 -0.026328 -0.392170 -3.237227 3.893704 0.281617 -0.000000 0.000000 0.000000 -1.054368 -2.171889 2.345656 4.464057 -0.371601 2.419325 0.000000 0.000000 0.000000 3.850524 -0.308547 2.967160 -1.961489 -2.467023 0.113064 2.910523 -0.236379 3.106722 -5.899823 -13.795785 2.105191 -86.890890 3.896818 7.332871 -1.415001 -15.556992 0.563403 4.217693 -0.068964 2.054090 10.075879 12.933205 3.026023 41.950503 51.110949 -13.633607 178.735280 45.349858 -178.654107 0.000000 0.000000 0.000000 1.860660 15.987279 -19.810601 -0.472883 -4.477145 10.913575 0.000000 0.000000 0.000000 8.894133 -1.908270 -5.117189 -0.131936 -7.748099 5.573539 
-0.104237 -0.035926 -0.461677 -3.335116 3.967717 0.282016 -0.000000 0.000000 0.000000 -1.052188 -2.137602 2.320320 4.472707 -0.404404 2.529182 0.000000 0.000000 0.000000 3.809767 -0.332316 3.061638 -2.174578 -2.470420 0.399288 2.887808 -0.225299 3.366259 -5.886516 -13.893026 2.130609 -87.995597 4.057537 6.907375 -1.428911 -13.032181 0.562467 4.183022 -0.112895 2.187366 10.052234 13.148228 2.999809 41.738811 51.679054 -14.318818 178.742063 44.346870 -178.784264 0.000000 0.000000 -0.000000 1.968207 16.095655 -19.865913 -0.455852 -4.552608 10.857616 0.000000 0.000000 0.000000 9.016187 -1.956822 -5.108382 -0.441860 -7.876058 5.721399 
-0.042166 -0.044162 -0.530592 -3.376080 4.065884 0.310527 -0.000000 0.000000 0.000000 -1.054565 -2.107466 2.372413 4.453945 -0.390029 2.613192 0.000000 0.000000 0.000000 3.769277 -0.325839 3.128237 -2.238945 -2.467770 0.414672 2.857667 -0.184372 3.563867 -5.886201 -13.917139 2.186959 -88.462989 4.324744 6.841081 -1.424166 -12.126586 0.607906 4.136985 -0.112066 2.250443 9.941001 13.270404 2.999710 41.676625 51.960110 -14.700217 178.716057 43.595113 -178.870469 0.000000 0.000000 -0.000000 2.014328 16.135640 -19.883866 -0.453635 -4.582095 10.799856 0.000000 0.000000 0.000000 9.058111 -1.958719 -5.078681 -0.593291 -7.960465 5.689940 
